PathFileType	4	(X/Y/Z)	/Users/guillermo/Documents/TESIS/Procesamiento_videos/data/sports2d_raw/Cam1_rep/sujeto01_caml/sujeto01_rep09_camL_Sports2D/sujeto01_rep09_camL_Sports2D_px_person00.trc
DataRate	CameraRate	NumFrames	NumMarkers	Units	OrigDataRate	OrigDataStartFrame	OrigNumFrames
120.0	120.0	13	22	m	120.0	0	68
Frame#	Time	Hip			RHip			RKnee			RAnkle			RBigToe			RSmallToe			RHeel			LHip			LKnee			LAnkle			LBigToe			LSmallToe			LHeel			Neck			Head			Nose			RShoulder			RElbow			RWrist			LShoulder			LElbow			LWrist			
		X1	Y1	Z1	X2	Y2	Z2	X3	Y3	Z3	X4	Y4	Z4	X5	Y5	Z5	X6	Y6	Z6	X7	Y7	Z7	X8	Y8	Z8	X9	Y9	Z9	X10	Y10	Z10	X11	Y11	Z11	X12	Y12	Z12	X13	Y13	Z13	X14	Y14	Z14	X15	Y15	Z15	X16	Y16	Z16	X17	Y17	Z17	X18	Y18	Z18	X19	Y19	Z19	X20	Y20	Z20	X21	Y21	Z21	X22	Y22	Z22
0	0.0	905.8280639648438	550.1398315429688	0.0	890.1551513671875	551.9837036132812	0.0	893.8428955078125	617.441162109375	0.0	899.37451171875	677.3670043945312	0.0	899.37451171875	693.0399169921875	0.0	891.0770874023438	692.1179809570312	0.0	902.1403198242188	683.820556640625	0.0	922.4229125976562	550.1398315429688	0.0	924.2667846679688	615.5972900390625	0.0	927.9545288085938	676.445068359375	0.0	927.0325927734375	692.1179809570312	0.0	937.1738891601562	690.2741088867188	0.0	925.188720703125	683.820556640625	0.0	901.2183837890625	450.57073974609375	0.0	899.37451171875	409.0836181640625	0.0	898.4525756835938	429.3662109375	0.0	876.3261108398438	465.32171630859375	0.0	865.2628784179688	506.808837890625	0.0	857.8873901367188	544.6082153320312	0.0	927.9545288085938	464.3997802734375	0.0	938.0958251953125	504.04302978515625	0.0	948.2371215820312	541.8424072265625	0.0
1	0.008333333333333333	905.8280639648438	550.1398315429688	0.0	890.1551513671875	551.9837036132812	0.0	893.8428955078125	617.441162109375	0.0	899.37451171875	677.3670043945312	0.0	899.37451171875	693.0399169921875	0.0	891.0770874023438	692.1179809570312	0.0	902.1403198242188	683.820556640625	0.0	922.4229125976562	550.1398315429688	0.0	924.2667846679688	615.5972900390625	0.0	927.9545288085938	676.445068359375	0.0	927.0325927734375	692.1179809570312	0.0	937.1738891601562	690.2741088867188	0.0	925.188720703125	683.820556640625	0.0	901.2183837890625	450.57073974609375	0.0	899.37451171875	409.0836181640625	0.0	898.4525756835938	429.3662109375	0.0	876.3261108398438	465.32171630859375	0.0	865.2628784179688	506.808837890625	0.0	857.8873901367188	544.6082153320312	0.0	927.9545288085938	464.3997802734375	0.0	938.0958251953125	504.04302978515625	0.0	948.2371215820312	541.8424072265625	0.0
2	0.016666666666666666	905.8244018554688	549.5416259765625	0.0	890.0892333984375	551.392822265625	0.0	893.7916259765625	617.1102905273438	0.0	899.34521484375	677.274169921875	0.0	898.4196166992188	693.0093383789062	0.0	890.0892333984375	692.083740234375	0.0	902.1220092773438	683.7533569335938	0.0	922.4851684570312	550.4672241210938	0.0	924.3363647460938	615.2590942382812	0.0	928.0387573242188	677.274169921875	0.0	927.1131591796875	693.0093383789062	0.0	936.369140625	690.2325439453125	0.0	925.261962890625	683.7533569335938	0.0	901.1964111328125	450.50262451171875	0.0	899.34521484375	408.8507080078125	0.0	898.4196166992188	430.13946533203125	0.0	876.2052612304688	465.31219482421875	0.0	865.0980834960938	506.03851318359375	0.0	858.618896484375	544.9136352539062	0.0	928.0387573242188	464.3865966796875	0.0	938.2203369140625	504.18731689453125	0.0	948.4019165039062	541.2112426757812	0.0
3	0.025	905.6524658203125	549.5672607421875	0.0	889.9484252929688	552.3385620117188	0.0	893.6434936523438	617.926025390625	0.0	899.1860961914062	677.9708862304688	0.0	898.2623291015625	693.6749267578125	0.0	890.8721923828125	691.827392578125	0.0	901.9573974609375	683.5134887695312	0.0	921.3565063476562	551.414794921875	0.0	924.1278076171875	616.0784912109375	0.0	928.7466430664062	677.047119140625	0.0	926.8991088867188	692.7511596679688	0.0	937.060546875	689.9798583984375	0.0	925.975341796875	684.437255859375	0.0	901.9573974609375	450.72418212890625	0.0	899.1860961914062	409.1546630859375	0.0	898.2623291015625	429.4775390625	0.0	876.0919189453125	465.50445556640625	0.0	865.0067138671875	507.073974609375	0.0	858.5403442382812	544.9484252929688	0.0	928.7466430664062	464.5806884765625	0.0	938.9080810546875	504.30267333984375	0.0	949.0695190429688	541.2533569335938	0.0
4	0.03333333333333333	905.4841918945312	550.1398315429688	0.0	889.811279296875	551.9837036132812	0.0	894.4209594726562	617.441162109375	0.0	899.0306396484375	677.3670043945312	0.0	898.1087036132812	693.0399169921875	0.0	889.811279296875	692.1179809570312	0.0	901.7964477539062	683.820556640625	0.0	922.0790405273438	551.061767578125	0.0	923.9229125976562	615.5972900390625	0.0	928.5325927734375	677.3670043945312	0.0	927.6106567382812	692.1179809570312	0.0	936.8300170898438	690.2741088867188	0.0	925.7667846679688	684.7424926757812	0.0	901.7964477539062	450.57073974609375	0.0	899.0306396484375	409.0836181640625	0.0	898.1087036132812	430.28814697265625	0.0	875.9822387695312	465.32171630859375	0.0	865.8409423828125	506.808837890625	0.0	858.4654541015625	544.6082153320312	0.0	928.5325927734375	464.3997802734375	0.0	938.6738891601562	504.04302978515625	0.0	948.815185546875	539.99853515625	0.0
5	0.041666666666666664	905.4841918945312	550.5148315429688	0.0	889.811279296875	552.3587036132812	0.0	894.4209594726562	617.816162109375	0.0	899.0306396484375	677.7420043945312	0.0	898.1087036132812	693.4149169921875	0.0	889.811279296875	691.571044921875	0.0	901.7964477539062	683.2736206054688	0.0	922.0790405273438	551.436767578125	0.0	923.9229125976562	615.9722900390625	0.0	928.5325927734375	676.820068359375	0.0	926.688720703125	692.4929809570312	0.0	936.8300170898438	689.7271728515625	0.0	925.7667846679688	684.195556640625	0.0	900.87451171875	450.94573974609375	0.0	899.0306396484375	409.4586181640625	0.0	898.1087036132812	430.66314697265625	0.0	875.9822387695312	465.69671630859375	0.0	864.9190063476562	507.183837890625	0.0	859.3873901367188	544.9832153320312	0.0	928.5325927734375	464.7747802734375	0.0	938.6738891601562	504.41802978515625	0.0	949.7371215820312	541.2954711914062	0.0
6	0.05	905.4896850585938	550.1636352539062	0.0	889.847900390625	551.083740234375	0.0	894.4484252929688	617.331298828125	0.0	899.0489501953125	677.1381225585938	0.0	898.1288452148438	692.7799072265625	0.0	889.847900390625	691.8598022460938	0.0	901.8092651367188	683.578857421875	0.0	921.1314697265625	550.1636352539062	0.0	923.8917846679688	614.5709838867188	0.0	928.4923095703125	676.218017578125	0.0	927.5722045898438	691.8598022460938	0.0	936.7732543945312	690.0195922851562	0.0	925.7319946289062	684.4989624023438	0.0	901.8092651367188	450.79229736328125	0.0	899.0489501953125	409.3875732421875	0.0	898.1288452148438	430.54998779296875	0.0	876.0463256835938	465.51397705078125	0.0	865.9251708984375	506.918701171875	0.0	859.4844360351562	544.6430053710938	0.0	928.4923095703125	464.5938720703125	0.0	939.5335693359375	504.15838623046875	0.0	950.5748291015625	540.9625854492188	0.0
7	0.058333333333333334	905.5006713867188	549.8362426757812	0.0	889.921142578125	552.5855712890625	0.0	894.5033569335938	617.6530151367188	0.0	899.0855712890625	678.1382446289062	0.0	898.1691284179688	692.8013305664062	0.0	889.921142578125	691.8848876953125	0.0	900.91845703125	683.6369018554688	0.0	922.9130859375	550.752685546875	0.0	926.578857421875	614.9036865234375	0.0	928.4117431640625	677.2218017578125	0.0	927.4953002929688	691.8848876953125	0.0	936.6597290039062	690.052001953125	0.0	925.6624145507812	684.5533447265625	0.0	900.91845703125	450.86041259765625	0.0	899.0855712890625	409.6204833984375	0.0	898.1691284179688	430.69866943359375	0.0	876.1744995117188	465.52349853515625	0.0	865.1771850585938	506.763427734375	0.0	859.6785278320312	544.3375854492188	0.0	928.4117431640625	464.6070556640625	0.0	939.4090576171875	503.09765625	0.0	949.4899291992188	540.6718139648438	0.0
8	0.06666666666666667	906.5853881835938	549.8600463867188	0.0	890.1223754882812	551.6892700195312	0.0	894.6954345703125	616.626708984375	0.0	899.2684936523438	677.9057006835938	0.0	899.2684936523438	693.4541015625	0.0	891.0369873046875	691.6248779296875	0.0	901.0977172851562	683.3933715820312	0.0	923.0484008789062	550.774658203125	0.0	925.792236328125	613.8828735351562	0.0	928.5360717773438	676.9910888671875	0.0	927.6214599609375	692.5394897460938	0.0	936.767578125	689.795654296875	0.0	925.792236328125	684.3079833984375	0.0	902.0123291015625	451.08197021484375	0.0	899.2684936523438	409.00982666015625	0.0	898.3538818359375	430.0458984375	0.0	875.4885864257812	465.71575927734375	0.0	865.4278564453125	505.95867919921875	0.0	859.940185546875	544.3723754882812	0.0	928.5360717773438	463.88653564453125	0.0	939.5114135742188	504.12945556640625	0.0	950.4867553710938	539.79931640625	0.0
9	0.075	906.0	549.9703674316406	0.0	889.7924194335938	551.7712097167969	0.0	893.3941040039062	617.501953125	0.0	898.796630859375	677.8301696777344	0.0	899.6970520019531	694.9381713867188	0.0	891.59326171875	693.1373291015625	0.0	901.4978942871094	684.1331176757812	0.0	922.2075805664062	549.9703674316406	0.0	925.8092651367188	614.8006896972656	0.0	928.5105285644531	676.9297485351562	0.0	927.610107421875	694.0377502441406	0.0	936.6143188476562	691.3364868164062	0.0	924.9088439941406	685.0335388183594	0.0	901.4978942871094	450.9240417480469	0.0	899.6970520019531	409.5046691894531	0.0	898.796630859375	430.21435546875	0.0	876.2861022949219	465.3307800292969	0.0	865.4810485839844	506.7501525878906	0.0	860.0785217285156	543.6674194335938	0.0	928.5105285644531	464.43035888671875	0.0	939.3155822753906	503.1484680175781	0.0	951.9214782714844	540.0657348632812	0.0
10	0.08333333333333333	905.860107421875	549.47607421875	0.0	889.842041015625	551.255859375	0.0	894.29150390625	617.997802734375	0.0	899.630859375	678.510498046875	0.0	900.520751953125	695.41845703125	0.0	891.621826171875	693.638671875	0.0	902.300537109375	684.73974609375	0.0	922.76806640625	549.47607421875	0.0	926.32763671875	614.438232421875	0.0	928.997314453125	676.730712890625	0.0	927.217529296875	693.638671875	0.0	937.00634765625	690.968994140625	0.0	925.437744140625	683.849853515625	0.0	901.41064453125	450.697998046875	0.0	899.630859375	409.762939453125	0.0	897.85107421875	430.23046875	0.0	876.49365234375	465.826171875	0.0	865.81494140625	505.871337890625	0.0	860.4755859375	543.246826171875	0.0	928.107421875	464.04638671875	0.0	939.676025390625	503.20166015625	0.0	951.24462890625	540.5771484375	0.0
11	0.09166666666666666	905.8788757324219	549.156005859375	0.0	890.1986389160156	552.6405029296875	0.0	893.6831359863281	617.9748229980469	0.0	899.781005859375	678.0823974609375	0.0	899.781005859375	693.7626342773438	0.0	891.0697631835938	692.8915100097656	0.0	902.3943786621094	685.0513916015625	0.0	922.4302368164062	550.8982543945312	0.0	925.9147338867188	614.4903259277344	0.0	928.5281066894531	676.3401489257812	0.0	927.656982421875	692.8915100097656	0.0	937.2393493652344	690.2781372070312	0.0	925.9147338867188	684.1802673339844	0.0	902.3943786621094	450.7189636230469	0.0	898.9098815917969	408.9049987792969	0.0	898.0387573242188	430.68310546875	0.0	876.2606506347656	465.528076171875	0.0	865.8071594238281	506.4709167480469	0.0	860.5804138183594	543.9292602539062	0.0	928.5281066894531	463.78582763671875	0.0	938.9815979003906	502.9864196777344	0.0	950.3062133789062	538.7025146484375	0.0
12	0.1	906.7327880859375	549.9049072265625	0.0	889.8541259765625	552.20654296875	0.0	895.224609375	618.186767578125	0.0	900.5950927734375	678.7965087890625	0.0	900.5950927734375	694.907958984375	0.0	891.3885498046875	692.6063232421875	0.0	903.6639404296875	685.701416015625	0.0	922.84423828125	550.672119140625	0.0	926.6802978515625	615.117919921875	0.0	928.2147216796875	676.494873046875	0.0	926.6802978515625	694.907958984375	0.0	936.654052734375	691.839111328125	0.0	926.6802978515625	684.1669921875	0.0	902.1295166015625	450.9345703125	0.0	899.0606689453125	408.7379150390625	0.0	898.29345703125	430.2198486328125	0.0	876.0443115234375	464.744384765625	0.0	866.8377685546875	505.4066162109375	0.0	861.46728515625	543.0	0.0	928.2147216796875	463.2099609375	0.0	939.722900390625	503.8721923828125	0.0	951.2310791015625	541.465576171875	0.0
